<?xml version="1.0" standalone="no"?>
<!DOCTYPE svg PUBLIC "-//W3C//DTD SVG 20010904//EN"
 "http://www.w3.org/TR/2001/REC-SVG-20010904/DTD/svg10.dtd">
<svg version="1.0" xmlns="http://www.w3.org/2000/svg"
 width="512.000000pt" height="512.000000pt" viewBox="0 0 512.000000 512.000000"
 preserveAspectRatio="xMidYMid meet">

<g transform="translate(0.000000,512.000000) scale(0.100000,-0.100000)"
fill="#000000" stroke="none">
<path d="M4063 4806 l-28 -24 0 -237 0 -237 28 -24 c30 -26 83 -32 118 -14 43
24 49 57 49 275 0 132 -4 214 -11 228 -31 60 -106 76 -156 33z"/>
<path d="M4593 4458 c-170 -167 -184 -199 -118 -265 32 -32 40 -35 73 -30 31
6 59 28 175 145 127 129 137 141 137 176 0 55 -43 96 -101 96 -41 0 -47 -5
-166 -122z"/>
<path d="M3127 4200 c-67 -17 -100 -41 -214 -153 l-112 -110 -94 41 c-650 286
-1353 205 -1927 -222 -115 -86 -283 -250 -372 -366 -453 -586 -534 -1346 -212
-2006 99 -203 228 -378 405 -549 286 -276 628 -452 1014 -521 204 -36 496 -29
715 18 564 120 1063 513 1330 1046 254 508 263 1105 25 1627 l-35 78 108 111
c135 140 157 181 157 291 0 105 -25 152 -139 265 l-86 84 38 39 c76 79 112 82
197 17 119 -91 271 -92 376 -2 50 43 63 74 49 117 -24 73 -91 94 -155 49 -61
-43 -107 -39 -172 13 -66 52 -111 67 -193 67 -86 -1 -149 -29 -223 -102 l-57
-56 -93 91 c-60 60 -109 100 -140 113 -56 25 -136 33 -190 20z m111 -204 c15
-8 127 -115 250 -239 283 -284 277 -265 143 -400 -80 -81 -93 -90 -102 -74
-87 149 -392 454 -538 537 -13 7 -5 20 54 81 106 108 138 124 193 95z m-1047
-70 c712 -115 1291 -674 1435 -1383 131 -649 -146 -1331 -704 -1730 -232 -166
-490 -269 -772 -309 -152 -21 -402 -14 -545 16 -746 157 -1312 775 -1394 1522
-77 701 314 1400 964 1722 192 96 383 152 590 176 100 11 314 4 426 -14z"/>
<path d="M3294 2111 c-12 -5 -31 -22 -44 -38 -47 -60 -1 -153 76 -153 46 0 70
14 89 50 22 43 18 76 -12 110 -30 32 -75 45 -109 31z"/>
<path d="M3144 1686 c-23 -10 -43 -34 -74 -90 -124 -225 -317 -416 -536 -528
-173 -89 -334 -134 -533 -147 -112 -8 -115 -8 -143 -40 -33 -37 -36 -73 -8
-118 25 -42 50 -47 184 -39 494 29 968 331 1205 766 59 108 52 174 -21 199
-38 13 -36 13 -74 -3z"/>
<path d="M4593 3931 c-56 -35 -63 -110 -13 -153 l30 -28 221 0 c132 0 228 4
240 10 24 13 49 61 49 94 0 14 -13 40 -29 58 l-29 33 -219 3 c-202 2 -220 1
-250 -17z"/>
</g>
</svg>
